<?xml version="1.0" encoding="UTF-8" standalone="no"?>
<!-- Generator: Adobe Illustrator 18.1.1, SVG Export Plug-In . SVG Version: 6.00 Build 0)  -->

<svg
   xmlns:dc="http://purl.org/dc/elements/1.1/"
   xmlns:cc="http://creativecommons.org/ns#"
   xmlns:rdf="http://www.w3.org/1999/02/22-rdf-syntax-ns#"
   xmlns:svg="http://www.w3.org/2000/svg"
   xmlns="http://www.w3.org/2000/svg"
   xmlns:sodipodi="http://sodipodi.sourceforge.net/DTD/sodipodi-0.dtd"
   xmlns:inkscape="http://www.inkscape.org/namespaces/inkscape"
   version="1.1"
   id="Layer_1"
   x="0px"
   y="0px"
   viewBox="0 0 3500 3500"
   enable-background="new 0 0 2208 2208"
   xml:space="preserve"
   sodipodi:docname="OnSiteX-Splash.svg"
   width="3500"
   height="3500"
   inkscape:version="0.92.1 r15371"><metadata
     id="metadata4639"><rdf:RDF><cc:Work
         rdf:about=""><dc:format>image/svg+xml</dc:format><dc:type
           rdf:resource="http://purl.org/dc/dcmitype/StillImage" /><dc:title></dc:title></cc:Work></rdf:RDF></metadata><defs
     id="defs4637" /><sodipodi:namedview
     pagecolor="#ffffff"
     bordercolor="#666666"
     borderopacity="1"
     objecttolerance="10"
     gridtolerance="10"
     guidetolerance="10"
     inkscape:pageopacity="0"
     inkscape:pageshadow="2"
     inkscape:window-width="1920"
     inkscape:window-height="1017"
     id="namedview4635"
     showgrid="false"
     inkscape:zoom="0.10495924"
     inkscape:cx="-246.50608"
     inkscape:cy="571.43737"
     inkscape:window-x="-8"
     inkscape:window-y="108"
     inkscape:window-maximized="1"
     inkscape:current-layer="Layer_1" /><rect
     style="fill:#2a18ff;fill-opacity:1;stroke:#000000;stroke-width:10;stroke-miterlimit:4;stroke-dasharray:none;stroke-opacity:1"
     id="rect4641"
     width="3591.8706"
     height="3544.2329"
     x="9.5275078"
     y="-6.1229734" /><g
     id="g4632"
     transform="translate(645.8,646)"><linearGradient
       id="SVGID_1_"
       gradientUnits="userSpaceOnUse"
       x1="64.009399"
       y1="2080.0154"
       x2="64.009399"
       y2="2207.9846"
       gradientTransform="matrix(17.25,0,0,-17.25,0,38088)"><stop
         offset="0"
         style="stop-color:#2D2D84"
         id="stop4567" /><stop
         offset="7.400000e-003"
         style="stop-color:#2F2E84;stop-opacity:0.9926"
         id="stop4569" /><stop
         offset="0.4994"
         style="stop-color:#965698;stop-opacity:0.5006"
         id="stop4571" /><stop
         offset="0.8403"
         style="stop-color:#D870A4;stop-opacity:0.1597"
         id="stop4573" /><stop
         offset="1"
         style="stop-color:#F17AA9;stop-opacity:0"
         id="stop4575" /></linearGradient><path
       d="M 2208,2207.7 0.4,2207.2 V 0.3 H 2208 Z"
       id="path4578"
       inkscape:connector-curvature="0"
       style="fill:url(#SVGID_1_)" /><g
       id="g4582"><path
         enable-background="new    "
         d="M 2208.2,2208 H 0.2 V 0 h 2208 z"
         id="path4580"
         inkscape:connector-curvature="0"
         style="opacity:0.5;fill:#0d72b9" /></g><g
       id="g4588"><rect
         x="135.2"
         y="135.7"
         transform="matrix(-1,-0.002,0.002,-1,757.7147,760.1293)"
         width="488.10001"
         height="487.89999"
         id="rect4584"
         style="fill:#f9bd15" /><rect
         x="153.3"
         y="153.8"
         transform="matrix(-1,-0.002,0.002,-1,757.7147,760.1293)"
         width="451.89999"
         height="451.79999"
         id="rect4586"
         style="fill:#3953a2" /></g><path
       d="m 289.9,447.4 c -0.1,29.2 8.3,52.3 25,69.4 16.7,17.1 39.3,25.6 67.6,25.7 25.8,0.1 46.5,-6.5 62.1,-19.8 15.6,-13.2 23.4,-30.9 23.5,-52.9 0.1,-29.7 -27.5,-52.3 -82.7,-67.6 -11,-3 -19.6,-5.4 -25.7,-7.1 -44.4,-12.9 -73.6,-27.1 -87.8,-42.7 -14.1,-15.6 -21.2,-37.3 -21.1,-65.1 0.1,-35.6 11.6,-64.3 34.7,-86.2 23.1,-21.9 53.2,-32.8 90.4,-32.7 42.6,0.1 75.5,11.4 98.8,33.9 23.4,22.5 35,54.3 34.9,95.3 v 1.1 l -51.4,-0.1 c -2,-26.7 -9.9,-47.2 -23.8,-61.4 -13.9,-14.2 -32.9,-21.4 -57,-21.4 -22.3,-0.1 -40.1,5.7 -53.5,17.3 -13.4,11.5 -20.1,26.9 -20.1,46.1 -0.1,19.2 5,33.3 15,42.4 10,9.1 36.5,18.7 79.4,29 49.9,12 82.7,26.1 98.4,42.5 15.7,16.4 23.5,40 23.5,70.9 -0.1,39 -12.7,69.9 -37.9,92.8 C 457,579.7 423,591.1 380.2,591 336.5,590.9 302.4,578.4 277.9,553.5 253.4,528.6 240.1,493.2 238.2,447.3 Z"
       id="path4590"
       inkscape:connector-curvature="0"
       style="fill:#f9bd15" /><g
       id="g4596"><rect
         x="604.29999"
         y="606.5"
         transform="matrix(-1,-0.002,0.002,-1,1694.9104,1702.6639)"
         width="488.10001"
         height="487.89999"
         id="rect4592"
         style="fill:#f9bd15" /><rect
         x="622.29999"
         y="624.59998"
         transform="matrix(-1,-0.002,0.002,-1,1694.9105,1702.6642)"
         width="451.89999"
         height="451.79999"
         id="rect4594"
         style="fill:#3953a2" /></g><path
       d="m 735.4,1061.4 0.8,-422.2 221.2,0.4 -0.1,51.1 -174,-0.3 -0.3,126.6 158.7,0.3 -0.1,50.5 -158.6,-0.3 -0.3,142.9 178,0.4 -0.1,51.1 z"
       id="path4598"
       inkscape:connector-curvature="0"
       style="fill:#f9bd15" /><g
       id="g4604"><rect
         x="1073.3"
         y="1077.3"
         transform="matrix(-1,-0.002,0.002,-1,2632.1062,2645.1987)"
         width="488.10001"
         height="487.89999"
         id="rect4600"
         style="fill:#f9bd15" /><rect
         x="1091.4"
         y="1095.4"
         transform="matrix(-1,-0.002,0.002,-1,2632.1062,2645.199)"
         width="451.89999"
         height="451.79999"
         id="rect4602"
         style="fill:#3953a2" /></g><path
       d="m 1228,1389 c -0.1,29.2 8.3,52.3 25,69.4 16.7,17.1 39.3,25.6 67.6,25.7 25.8,0.1 46.5,-6.5 62.1,-19.8 15.6,-13.2 23.4,-30.9 23.5,-52.9 0.1,-29.7 -27.5,-52.3 -82.7,-67.6 -11,-3 -19.6,-5.4 -25.7,-7.1 -44.4,-12.9 -73.6,-27.1 -87.8,-42.7 -14.2,-15.6 -21.2,-37.3 -21.1,-65.1 0.1,-35.6 11.6,-64.3 34.7,-86.2 23.1,-21.9 53.2,-32.8 90.4,-32.7 42.6,0.1 75.5,11.4 98.8,33.9 23.4,22.5 35,54.3 34.9,95.3 v 1.1 l -51.4,-0.1 c -2,-26.7 -9.9,-47.2 -23.8,-61.4 -13.9,-14.2 -32.9,-21.4 -57,-21.4 -22.3,-0.1 -40.1,5.7 -53.5,17.3 -13.4,11.5 -20.1,26.9 -20.1,46.1 0,19.2 5,33.3 15,42.4 10,9.1 36.5,18.7 79.4,29 49.9,12 82.7,26.1 98.4,42.5 15.7,16.4 23.5,40 23.5,70.9 -0.1,39 -12.7,69.9 -37.9,92.8 -25.2,22.9 -59.2,34.3 -101.9,34.2 -43.7,-0.1 -77.8,-12.6 -102.3,-37.5 -24.5,-24.9 -37.8,-60.3 -39.7,-106.2 z"
       id="path4606"
       inkscape:connector-curvature="0"
       style="fill:#f9bd15" /><g
       id="g4612"><rect
         x="1541.8"
         y="1548.1"
         transform="matrix(-1,-0.002,0.002,-1,3568.0601,3587.7334)"
         width="488.10001"
         height="487.89999"
         id="rect4608"
         style="fill:#f9bd15" /><rect
         x="1559.9"
         y="1566.2"
         transform="matrix(-1,-0.002,0.002,-1,3568.0601,3587.699)"
         width="451.89999"
         height="451.79999"
         id="rect4610"
         style="fill:#3953a2" /></g><path
       d="m 1616.6,2002.8 141.2,-422 56.6,0.1 140.1,422.5 -52,-0.1 -40.4,-124.1 -153.6,-0.3 -40.9,123.9 z m 109.5,-175.4 119,0.2 -59.2,-186.2 z"
       id="path4614"
       inkscape:connector-curvature="0"
       style="fill:#f9bd15" /><g
       id="g4620"><path
         d="m 656.4,1154 v 34.1 c 28.4,-31.6 51.5,-42.1 90.5,-42.1 33.7,0 61.5,11.8 77.5,32.8 13.6,18.6 18.9,39.6 18.9,74.3 v 200 h -54.4 v -195.6 c 0,-40.8 -17.8,-60.7 -55,-60.7 -46.7,0 -75.2,28.5 -75.2,74.9 V 1453 h -54.4 v -299 z"
         id="path4616"
         inkscape:connector-curvature="0"
         style="fill:#e5e5e4" /><path
         d="m 533.9,1186 c 0,154.4 -80.5,266.9 -190.5,266.9 -111.2,0 -190.5,-112.5 -190.5,-270.8 0,-157.5 79.3,-270 190,-270 113.5,0.1 191,111.8 191,273.9 z m -323.7,-3.8 c 0,122.6 53.9,206.4 133.1,206.4 78.1,0 133.1,-83.8 133.1,-203.3 0,-125.7 -53.3,-208.7 -133.1,-208.7 -79.2,0 -133.1,83.8 -133.1,205.6 z"
         id="path4618"
         inkscape:connector-curvature="0"
         style="fill:#e5e5e4" /></g><g
       id="g4630"><path
         d="M 713.4,1685.2 H 646 V 1618 h 67.3 v 67.2 z m 0,351.4 H 646 v -303.1 h 67.3 v 303.1 z"
         id="path4622"
         inkscape:connector-curvature="0"
         style="fill:#aeae63" /><path
         d="m 952,1773 h -63.7 v 190.1 c 0,17.6 9.5,27.6 26.3,27.6 9.5,0 19,-1.9 37.3,-8.2 v 47.1 c -29.3,5.7 -40.2,6.9 -56.4,6.9 -50.5,0 -74.6,-23.2 -74.6,-73.4 V 1773 h -47.6 v -45.8 H 821 v -96 h 67.3 v 96 H 952 Z"
         id="path4624"
         inkscape:connector-curvature="0"
         style="fill:#aeae63" /><path
         d="m 1057.3,1891 c 5.1,62.1 41.7,97.3 102.5,97.3 41.7,0 69.5,-16.9 85.6,-52.7 h 64.4 c -16.8,63.4 -73.2,101 -151.5,101 -99.5,0 -168.3,-65.3 -168.3,-160 0,-94.8 67.3,-159.4 166.1,-159.4 70.3,0 121.5,32 144.9,90.4 8.8,22.6 13.2,47.1 13.9,83.5 z m 187.4,-42.1 c -2.9,-55.2 -35.1,-86 -88.5,-86 -54.9,0 -94.4,35.1 -98.1,86 z"
         id="path4626"
         inkscape:connector-curvature="0"
         style="fill:#aeae63" /><path
         d="m 470.4,1662.1 c -7.3,-72.4 -47.6,-107.8 -121.5,-107.8 -65.1,0 -106.8,29.9 -106.8,75.5 0,38.6 25.6,61.4 87.8,76.3 l 79,18.9 c 57.8,14.1 87.1,27.5 110.5,50.3 25.6,24.4 39.5,59.8 39.5,100.7 0,99.1 -74.6,160.5 -193.2,160.5 -126.6,0 -202.7,-69.2 -213,-195.1 h 72.4 c 7.3,83.4 58.5,129.8 142.7,129.8 70.3,0 120,-37 120,-89.7 0,-39.3 -26.3,-65.3 -77.6,-78.6 l -109.8,-28.3 c -89.3,-22.8 -129.5,-65.3 -129.5,-136.1 0,-92 71,-150.2 183,-150.2 112,0 172,55.8 187.4,173.8 z"
         id="path4628"
         inkscape:connector-curvature="0"
         style="fill:#aeae63" /></g></g></svg>